<svg id="Layer_1" data-name="Layer 1" xmlns="http://www.w3.org/2000/svg" xmlns:xlink="http://www.w3.org/1999/xlink" viewBox="0 0 2614 584"><defs><style>.cls-1{fill:url(#linear-gradient);}.cls-2{fill:url(#linear-gradient-2);}.cls-3{fill:url(#linear-gradient-3);}.cls-4{fill:url(#linear-gradient-4);}.cls-5{fill:url(#linear-gradient-5);}.cls-6{fill:url(#linear-gradient-6);}.cls-7{fill:url(#linear-gradient-7);}.cls-8{fill:#005cb7;}.cls-9{fill:#00c3ff;}</style><linearGradient id="linear-gradient" x1="1405.75" y1="203" x2="1405.75" y2="469.87" gradientUnits="userSpaceOnUse"><stop offset="0" stop-color="#005cb7"/><stop offset="0.88" stop-color="#00b7f6"/><stop offset="1" stop-color="#00c3ff"/></linearGradient><linearGradient id="linear-gradient-2" x1="2504.67" y1="106.23" x2="2504.67" y2="475.97" xlink:href="#linear-gradient"/><linearGradient id="linear-gradient-3" x1="1671.5" y1="194.2" x2="1671.5" y2="476.45" xlink:href="#linear-gradient"/><linearGradient id="linear-gradient-4" x1="1992.46" y1="105.74" x2="1992.46" y2="476.45" xlink:href="#linear-gradient"/><linearGradient id="linear-gradient-5" x1="1138.07" y1="195.31" x2="1138.07" y2="477.56" xlink:href="#linear-gradient"/><linearGradient id="linear-gradient-6" x1="2311.07" y1="194.2" x2="2311.07" y2="476.45" xlink:href="#linear-gradient"/><linearGradient id="linear-gradient-7" x1="388.53" y1="79.15" x2="450.26" y2="338.05" gradientUnits="userSpaceOnUse"><stop offset="0.06" stop-color="#0043ff"/><stop offset="0.91" stop-color="#00c3ff"/></linearGradient></defs><title>FullColor_Horizontal</title><path class="cls-1" d="M1433.61,333.2l91.59-116.4c1.11-1.41,5.1-6.92,5.1-6.92l5-6.89h-48l-1.32,1.77s-.84,1.13-1.2,1.58L1404.34,306l-78.48-99.66-2.65-3.36h-46.77l4.89,6.86s3.91,5.49,5,6.9l91.2,117.42-95.2,121.91c-1.19,1.52-5.32,6.74-5.32,6.74l-5.56,7h48.77l85.08-108.48,82,105.09,2.59,3.39h50.15Z"/><rect class="cls-2" x="2484.72" y="106.24" width="39.91" height="369.71"/><path class="cls-3" d="M1812.83,469.24l-.48-267.19-39.26.07.06,35.59a141.13,141.13,0,1,0,.35,194.86l.07,36.74ZM1671.3,437.15a101.82,101.82,0,1,1,101.82-101.83A101.82,101.82,0,0,1,1671.3,437.15Z"/><path class="cls-4" d="M2133.79,469.24l-.48-363.5-39.26.07.06,131.91a141.13,141.13,0,1,0,.35,194.86l.07,36.74Zm-141.54-32.09a101.82,101.82,0,1,1,101.82-101.83A101.82,101.82,0,0,1,1992.26,437.15Z"/><path class="cls-5" d="M1239.52,345a101.82,101.82,0,0,1-184.44,50.46l179.34-92,0,.06,35.25-18a141.15,141.15,0,1,0,9.44,46.9q-.11-3.74-.41-7.43Zm-203.24-5.65a101.83,101.83,0,0,1,178.45-69.92l-175.83,90.2A102.28,102.28,0,0,1,1036.29,339.34Z"/><path class="cls-6" d="M2412.52,343.88a101.82,101.82,0,0,1-184.44,50.46l179.34-92,0,.06,35.25-18a141.15,141.15,0,1,0,9.44,46.9q-.11-3.74-.41-7.43Zm-203.24-5.65a101.83,101.83,0,0,1,178.45-69.92l-175.83,90.2A102.28,102.28,0,0,1,2209.28,338.23Z"/><path class="cls-7" d="M641.72,147.49c-47-15.11-102.7-23.87-162.48-23.87-165.14,0-299.43,66.79-303.07,149.9-.05,1.14-.08,2.3-.08,3.46V423.89C121.78,387.92,89.23,342,89.23,292,89.23,176.52,262.82,82.92,477,82.92c110.76,0,210.66,25,281.31,65.2L641.72,207.61Z"/><path class="cls-8" d="M210,347.47v96.15q-9.93-5.09-19.19-10.55-7.6-4.47-14.69-9.18V277c0,25.42,12.24,49.38,33.87,70.49Z"/><path class="cls-8" d="M864.68,292a115.76,115.76,0,0,1-3.7,29c-4,15.62-11.21,30.67-21.24,45a179.92,179.92,0,0,1-12.81,16.16L827.06,202a178.9,178.9,0,0,1,12.54,15.82C849.71,232.22,857,247.34,861,263c.9,3.47,1.63,7,2.21,10.5a113.08,113.08,0,0,1,1.27,11.62C864.62,287.41,864.68,289.7,864.68,292Z"/><path class="cls-9" d="M641.72,147.66v60L281.31,393.11v79.44A462.8,462.8,0,0,1,210,443.62V347.5h0Z"/><path class="cls-9" d="M827.06,202v15.82l0,55.65-.08,99v9.59c-12.24,13.8-27.22,26.77-44.55,38.7V277c0-1.16,0-2.31-.08-3.46a86.07,86.07,0,0,0-11.62-38.87h0l11.7-6.76,17.32-10L823,204.37Z"/><path class="cls-8" d="M782.38,277V420.81c-.87.62-1.76,1.21-2.65,1.8-47,31.67-110.74,55.78-184,68.48a697.52,697.52,0,0,1-118.82,10c-52.69,0-102.93-5.67-148.73-15.94-2.57-.58-5.12-1.17-7.66-1.77q-20.26-4.82-39.26-10.82V393.11c40.9,17.86,91.33,30.28,146.91,35,16.59,1.41,33.63,2.16,51,2.16,143.53,0,263.79-50.48,295.17-118.25v0A82.8,82.8,0,0,0,782.38,277Z"/></svg>